<svg width="178" height="161" viewBox="0 0 178 161" fill="none" xmlns="http://www.w3.org/2000/svg">
<path d="M80.35 158.2C37.3509 158.2 2.5 123.349 2.5 80.35C2.5 37.3509 37.3509 2.5 80.35 2.5C123.349 2.5 158.2 37.3509 158.2 80.35" stroke="#333333" stroke-width="5" stroke-linecap="round" stroke-linejoin="round"/>
<path d="M114.95 80.3501C114.95 56.4415 108.696 32.5329 96.2055 11.6691C88.879 -0.553401 71.8212 -0.553401 64.5033 11.6691C39.5048 53.4053 39.5048 107.303 64.5033 149.04C68.1622 155.147 74.2605 158.209 80.3587 158.209" stroke="#333333" stroke-width="5" stroke-linecap="round" stroke-linejoin="round"/>
<path d="M6.91162 54.4H152.837" stroke="#333333" stroke-width="5" stroke-linecap="round" stroke-linejoin="round"/>
<path d="M6.91162 106.3H80.3501" stroke="#323232" stroke-width="5" stroke-linecap="round" stroke-linejoin="round"/>
<path d="M175.5 129.006L165.769 119.275L156.038 129.006" stroke="#333333" stroke-width="5" stroke-linecap="round" stroke-linejoin="round"/>
<path d="M104.137 135.494L113.869 145.225L123.6 135.494" stroke="#333333" stroke-width="5" stroke-linecap="round" stroke-linejoin="round"/>
<path d="M113.869 145.225V119.275C113.869 112.104 119.673 106.3 126.844 106.3H146.306" stroke="#333333" stroke-width="5" stroke-linecap="round" stroke-linejoin="round"/>
<path d="M165.769 119.275V145.225C165.769 152.361 159.93 158.2 152.794 158.2H133.401" stroke="#333333" stroke-width="5" stroke-linecap="round" stroke-linejoin="round"/>
</svg>
